<svg width="1920" height="909" viewBox="0 0 1920 909" fill="none" xmlns="http://www.w3.org/2000/svg">
<g filter="url(#filter0_f_150_33)">
<path d="M-161 758.258C-124.592 739.731 -88.2642 721.073 -52.0157 702.284C118.034 614.141 286.331 523.113 452.877 429.202L411.263 427.384C523.139 515.222 636.119 601.555 750.204 686.382C760.787 694.251 782.264 696.76 794.505 691.852C825.466 679.44 856.389 666.932 887.273 654.328C1226.71 515.807 1561.46 365.786 1891.52 204.266C1928.19 186.319 1964.81 168.231 2001.36 150C1962.49 162.552 1923.67 175.246 1884.91 188.082C1536.09 303.604 1191.95 430.627 852.512 569.148C821.628 581.751 790.783 594.45 759.977 607.243L804.278 612.714C689.155 529.3 572.927 447.391 455.595 366.988C444.475 359.367 425.27 357.801 413.982 365.169C253.872 469.677 95.5149 577.069 -61.0906 687.344C-94.4733 710.851 -127.776 734.489 -161 758.258Z" fill="#FF6F08"/>
</g>
<defs>
<filter id="filter0_f_150_33" x="-311" y="0" width="2462.36" height="908.258" filterUnits="userSpaceOnUse" color-interpolation-filters="sRGB">
<feFlood flood-opacity="0" result="BackgroundImageFix"/>
<feBlend mode="normal" in="SourceGraphic" in2="BackgroundImageFix" result="shape"/>
<feGaussianBlur stdDeviation="75" result="effect1_foregroundBlur_150_33"/>
</filter>
</defs>
</svg>
