<svg xmlns="http://www.w3.org/2000/svg" viewBox="0 0 20 17" fill="none">
  <g transform="translate(9.08, 9.67)">
    <path d="M11.1656 3.41437V5.89676H7.89456C7.89456 5.89676 8.05538 4.7184 7.89456 3.51639C7.83913 3.10208 7.74462 2.67847 7.64456 2.30119C7.49544 1.73892 7.98153 1.18702 8.56323 1.18702C9.06432 1.18702 9.81022 1.03399 9.81022 1.03399C9.81022 1.03399 11.1656 1.03399 11.1656 3.41437Z" stroke="#123A90" stroke-width="0.5"/>
  </g>
  <g transform="translate(5, 10.5) scale(-1, 1)">
    <path d="M3.72178 2.67308V5.2H0.532558C0.532558 5.2 0.68935 4.0005 0.532558 2.77692C0.47617 2.33688 0.3783 1.88652 0.276078 1.49018C0.133814 0.938576 0.614847 0.405769 1.1845 0.405769C1.67305 0.405769 2.40028 0.25 2.40028 0.25C2.40028 0.25 3.72178 0.25 3.72178 2.67308Z" stroke="#123A90" stroke-width="0.5"/>
  </g>
  <circle cx="12.49588" cy="7.2" r="2.20588" fill="#123A90"/>
  <circle cx="17.20765" cy="8.7125" r="1.61765" fill="#123A90"/>
  <circle cx="7.79765" cy="8.7125" r="1.61765" fill="#123A90"/>
</svg>
