<svg preserveAspectRatio="none" width="100%" height="100%" overflow="visible" style="display: block;" viewBox="0 0 11.4156 6.82687" fill="none" xmlns="http://www.w3.org/2000/svg">
<path id="Vector 95" d="M11.1656 3.41437V5.89676H7.89456C7.89456 5.89676 8.05538 4.7184 7.89456 3.51639C7.83913 3.10208 7.74462 2.67847 7.64456 2.30119C7.49544 1.73892 7.98153 1.18702 8.56323 1.18702C9.06432 1.18702 9.81022 1.03399 9.81022 1.03399C9.81022 1.03399 11.1656 1.03399 11.1656 3.41437ZM11.1656 5.89676C11.1656 5.89676 11.1656 5.79475 11.1656 3.41437M2.03916 0.251868C2.03916 0.251868 3.06266 0.523911 3.68373 0.523911C4.30481 0.523911 5.21988 0.251868 5.21988 0.251868C5.21988 0.251868 7.24397 0.251872 7.24397 3.41437C7.24397 5.16097 5.82807 6.57687 4.08147 6.57687H3.4125C1.66582 6.57687 0.249991 5.16105 0.25 3.41437C0.250015 0.353886 2.03916 0.251868 2.03916 0.251868Z" stroke="var(--stroke-0, #123A90)" stroke-width="0.5" stroke-linecap="round"/>
</svg>
