<svg preserveAspectRatio="none" width="100%" height="100%" overflow="visible" style="display: block;" viewBox="0 0 15.5 11.519" fill="none" xmlns="http://www.w3.org/2000/svg">
<path id="Vector 93" d="M3.4735 2.01707L3.50788 2.03226M5.02077 2.70061L8.02937 4.02973L10.6941 2.70061L12.0695 2.01707L8.02937 0.270235L3.50788 2.03226M5.02077 2.70061L3.83883 2.17846L3.50788 2.03226M3.83883 2.17846V4.20062M5.02077 2.70061V4.80821C5.02077 4.80821 5.02077 5.54872 7.90043 5.54872C10.7024 5.54872 10.6941 4.73226 10.6941 4.73226V2.70061M4.13969 5.54872C4.13969 5.54872 3.53797 5.54872 2.95774 5.54872C2.5116 5.54872 2.29155 6.12996 2.29155 6.61201C2.29155 7.09405 2.48496 7.71327 2.95774 7.71327M11.4678 5.54872H12.1764C12.612 5.54872 12.8216 6.08142 12.8216 6.51707C12.8216 7.0916 12.5453 7.71327 11.9708 7.71327H4.13969C4.13969 7.71327 3.50005 7.71327 2.95774 7.71327M2.95774 7.71327H1.73281C1.73281 7.71327 0.25 7.71327 0.25 9.28922C0.25 10.8652 1.73281 10.7702 1.73281 10.7702H9.4692M4.13969 6.70694H11.5967M13.3374 7.71327H15.25V10.7702H11.5967M11.5967 10.7702V9.38416H13.2514H9.4692M11.5967 10.7702C11.5967 11.2222 11.0114 11.4009 10.7589 11.026L10.5867 10.7702L10.3653 11.0673C10.0793 11.4513 9.4692 11.249 9.4692 10.7702M9.4692 10.7702V9.38416M2.37751 9.38416H9.4692" stroke="var(--stroke-0, #123A90)" stroke-width="0.5" stroke-linecap="round"/>
</svg>
