<svg preserveAspectRatio="none" width="100%" height="100%" overflow="visible" style="display: block;" viewBox="0 0 13.4534 12.5" fill="none" xmlns="http://www.w3.org/2000/svg">
<path id="Vector 94" d="M0.250318 3.74254V8.25C0.250318 10.4591 2.04118 12.25 4.25032 12.25H9.20344C11.4126 12.25 13.2034 10.4591 13.2034 8.25V3.74254M0.250318 3.74254H13.2034M0.250318 3.74254C0.224531 1.82129 1.77487 0.25 3.69629 0.25H9.7109C11.6398 0.25 13.2034 1.81366 13.2034 3.74254M6.30079 4.95149V5.95896C6.30079 6.05787 6.21838 6.13806 6.11672 6.13806H5.17335C5.07169 6.13806 4.98928 6.05787 4.98928 5.95896V4.95149C4.98928 4.85258 5.07169 4.77239 5.17335 4.77239H6.11672C6.21838 4.77239 6.30079 4.85258 6.30079 4.95149ZM6.30079 7.39179V8.39925C6.30079 8.49817 6.21838 8.57836 6.11672 8.57836H5.17335C5.07169 8.57836 4.98928 8.49817 4.98928 8.39925V7.39179C4.98928 7.29287 5.07169 7.21269 5.17335 7.21269H6.11672C6.21838 7.21269 6.30079 7.29287 6.30079 7.39179ZM3.86185 7.39179V8.39925C3.86185 8.49817 3.77944 8.57836 3.67778 8.57836H2.73441C2.63276 8.57836 2.55034 8.49817 2.55034 8.39925V7.39179C2.55034 7.29287 2.63276 7.21269 2.73441 7.21269H3.67778C3.77944 7.21269 3.86185 7.29287 3.86185 7.39179ZM11.2247 4.95149V5.95896C11.2247 6.05787 11.1423 6.13806 11.0406 6.13806H10.0972C9.99559 6.13806 9.91318 6.05787 9.91318 5.95896V4.95149C9.91318 4.85258 9.99559 4.77239 10.0972 4.77239H11.0406C11.1423 4.77239 11.2247 4.85258 11.2247 4.95149ZM11.2247 7.39179V8.39925C11.2247 8.49817 11.1423 8.57836 11.0406 8.57836H10.0972C9.99559 8.57836 9.91318 8.49817 9.91318 8.39925V7.39179C9.91318 7.29287 9.99559 7.21269 10.0972 7.21269H11.0406C11.1423 7.21269 11.2247 7.29287 11.2247 7.39179ZM8.78574 7.39179V8.39925C8.78574 8.49817 8.70333 8.57836 8.60167 8.57836H7.65831C7.55665 8.57836 7.47424 8.49817 7.47424 8.39925V7.39179C7.47424 7.29287 7.55665 7.21269 7.65831 7.21269H8.60167C8.70333 7.21269 8.78574 7.29287 8.78574 7.39179ZM8.78574 4.95149V5.95896C8.78574 6.05787 8.70333 6.13806 8.60167 6.13806H7.65831C7.55665 6.13806 7.47424 6.05787 7.47424 5.95896V4.95149C7.47424 4.85258 7.55665 4.77239 7.65831 4.77239H8.60167C8.70333 4.77239 8.78574 4.85258 8.78574 4.95149ZM6.30079 9.72015V10.7276C6.30079 10.8265 6.21838 10.9067 6.11672 10.9067H5.17335C5.07169 10.9067 4.98928 10.8265 4.98928 10.7276V9.72015C4.98928 9.62123 5.07169 9.54104 5.17335 9.54104H6.11672C6.21838 9.54104 6.30079 9.62123 6.30079 9.72015ZM3.86185 9.72015V10.7276C3.86185 10.8265 3.77944 10.9067 3.67778 10.9067H2.73441C2.63276 10.9067 2.55034 10.8265 2.55034 10.7276V9.72015C2.55034 9.62123 2.63276 9.54104 2.73441 9.54104H3.67778C3.77944 9.54104 3.86185 9.62123 3.86185 9.72015ZM8.78574 9.72015V10.7276C8.78574 10.8265 8.70333 10.9067 8.60167 10.9067H7.65831C7.55665 10.9067 7.47424 10.8265 7.47424 10.7276V9.72015C7.47424 9.62123 7.55665 9.54104 7.65831 9.54104H8.60167C8.70333 9.54104 8.78574 9.62123 8.78574 9.72015ZM3.86185 4.95149V5.95896C3.86185 6.05787 3.77944 6.13806 3.67778 6.13806H2.73441C2.63276 6.13806 2.55034 6.05787 2.55034 5.95896V4.95149C2.55034 4.85258 2.63276 4.77239 2.73441 4.77239H3.67778C3.77944 4.77239 3.86185 4.85258 3.86185 4.95149Z" stroke="var(--stroke-0, #123A90)" stroke-width="0.5" stroke-linecap="round"/>
</svg>
